# xmcd
#
# Track frame offsets: 
#        182
#        20685
#        36265
#        54865
#        67870
#        89982
#        107420
#        132005
#        150507
#        168250
#        181592
#        194962
#
# Disc length: 2809 seconds
#
# Revision: 3
# Processed by: cddbd v1.5.2PL0 Copyright (c) Steve Scherf et al.
# Submitted via: ExactAudioCopy v0.95b3
#
DISCID=980af70c
DTITLE=Bruce Willis - If It Don't Kill You, It Just Makes You Stronger
DYEAR=1989
DGENRE=Blues
TTITLE0=Pep Talk
TTITLE1=Crazy Mixed-Up World
TTITLE2=Turn It Up ( A Little Louder )
TTITLE3=Soul Shake
TTITLE4=Here Comes Trouble Again
TTITLE5=Save The Last Dance For Me
TTITLE6=Blues For Mr. D
TTITLE7=Tenth Avenue Tango
TTITLE8=Can't Leave Her Alone
TTITLE9=Barnyard Boogie
TTITLE10=Love Makes The World Go Round
TTITLE11=I'll Go Crazy
EXTD=Motown ZD72680
EXTT0=
EXTT1=
EXTT2=
EXTT3=
EXTT4=
EXTT5=
EXTT6=
EXTT7=
EXTT8=
EXTT9=
EXTT10=
EXTT11=
PLAYORDER=
